# xmcd
#
# Track frame offsets:
#	150
#	5588
#	12960
#	24717
#	30221
#	40618
#	46066
#	52234
#	65231
#	72467
#	81019
#	90225
#	97827
#	103098
#	109991
#	119181
#	130133
#	139646
#	145432
#	164841
#	175213
#
# Disc length: 2407 seconds
#
# Revision: 1
# Processed by: cddbd v1.5.2PL0 Copyright (c) Steve Scherf et al.
# Submitted via: audiograbber 1.83.01
#
DISCID=27096515
DTITLE=Early Learning Centre - Happy Birthday to You
DYEAR=1900
DGENRE=Childrens
TTITLE0=Happy birthday to you
TTITLE1=If you're happy and you know it
TTITLE2=Coming round the mountain
TTITLE3=Sugar and spice
TTITLE4=LittleTopsy rabbit
TTITLE5=Looby-Loo
TTITLE6=Donkey riding
TTITLE7=My bonnie
TTITLE8=Round and round the garden
TTITLE9=5 fairy cakes
TTITLE10=Mary Mary
TTITLE11=Little Bo peep
TTITLE12=There was a little girl
TTITLE13=My hands upon my head
TTITLE14=Bobby Shafto
TTITLE15=Come on and clap
TTITLE16=Mary had a little lamb
TTITLE17=Horsey horsey
TTITLE18=5 little fairies
TTITLE19=Row row row your boat
TTITLE20=Happy birthday to you
EXTD=
EXTT0=
EXTT1=
EXTT2=
EXTT3=
EXTT4=
EXTT5=
EXTT6=
EXTT7=
EXTT8=
EXTT9=
EXTT10=
EXTT11=
EXTT12=
EXTT13=
EXTT14=
EXTT15=
EXTT16=
EXTT17=
EXTT18=
EXTT19=
EXTT20=
PLAYORDER=
